<svg width="22" height="24" viewBox="0 0 22 24" fill="none" xmlns="http://www.w3.org/2000/svg">
<path d="M10 22C4.477 22 0 17.523 0 12C0 6.477 4.477 2 10 2C15.523 2 20 6.477 20 12C20 17.523 15.523 22 10 22ZM6.5 14V16H9V18H11V16H12C12.663 16 13.2989 15.7366 13.7678 15.2678C14.2366 14.7989 14.5 14.163 14.5 13.5C14.5 12.837 14.2366 12.2011 13.7678 11.7322C13.2989 11.2634 12.663 11 12 11H8C7.86739 11 7.74021 10.9473 7.64645 10.8536C7.55268 10.7598 7.5 10.6326 7.5 10.5C7.5 10.3674 7.55268 10.2402 7.64645 10.1464C7.74021 10.0527 7.86739 10 8 10H13.5V8H11V6H9V8H8C7.33696 8 6.70107 8.26339 6.23223 8.73223C5.76339 9.20107 5.5 9.83696 5.5 10.5C5.5 11.163 5.76339 11.7989 6.23223 12.2678C6.70107 12.7366 7.33696 13 8 13H12C12.1326 13 12.2598 13.0527 12.3536 13.1464C12.4473 13.2402 12.5 13.3674 12.5 13.5C12.5 13.6326 12.4473 13.7598 12.3536 13.8536C12.2598 13.9473 12.1326 14 12 14H6.5Z" fill="#32CB5B"/>
</svg>
