<svg width="150" height="24" viewBox="0 0 150 24" fill="none" xmlns="http://www.w3.org/2000/svg">
<path d="M27.7614 4.45455H29.8636L34.8068 16.5284H34.9773L39.9205 4.45455H42.0227V19H40.375V7.94886H40.233L35.6875 19H34.0966L29.5511 7.94886H29.4091V19H27.7614V4.45455ZM48.5373 19.2557C47.846 19.2557 47.2186 19.1255 46.6552 18.8651C46.0917 18.5999 45.6443 18.2188 45.3129 17.7216C44.9814 17.2197 44.8157 16.6136 44.8157 15.9034C44.8157 15.2784 44.9388 14.7718 45.185 14.3835C45.4312 13.9905 45.7603 13.6828 46.1722 13.4602C46.5842 13.2377 47.0387 13.072 47.5359 12.9631C48.0378 12.8494 48.542 12.7595 49.0487 12.6932C49.7115 12.608 50.2489 12.544 50.6609 12.5014C51.0775 12.4541 51.3806 12.3759 51.57 12.267C51.7641 12.1581 51.8612 11.9687 51.8612 11.6989V11.642C51.8612 10.9413 51.6694 10.3968 51.2859 10.0085C50.9071 9.62027 50.3318 9.42614 49.56 9.42614C48.7598 9.42614 48.1325 9.60133 47.6779 9.9517C47.2234 10.3021 46.9038 10.6761 46.7191 11.0739L45.1282 10.5057C45.4123 9.8428 45.7911 9.3267 46.2646 8.95739C46.7428 8.58333 47.2636 8.32292 47.8271 8.17614C48.3952 8.02462 48.954 7.94886 49.5032 7.94886C49.8536 7.94886 50.256 7.99148 50.7106 8.0767C51.1699 8.1572 51.6126 8.32528 52.0387 8.58097C52.4696 8.83665 52.8271 9.22254 53.1112 9.73864C53.3952 10.2547 53.5373 10.946 53.5373 11.8125V19H51.8612V17.5227H51.7759C51.6623 17.7595 51.4729 18.0128 51.2077 18.2827C50.9426 18.5526 50.5898 18.7822 50.1495 18.9716C49.7092 19.161 49.1718 19.2557 48.5373 19.2557ZM48.793 17.75C49.4558 17.75 50.0146 17.6198 50.4691 17.3594C50.9284 17.099 51.274 16.7628 51.506 16.3509C51.7428 15.9389 51.8612 15.5057 51.8612 15.0511V13.517C51.7901 13.6023 51.6339 13.6804 51.3924 13.7514C51.1557 13.8177 50.881 13.8769 50.5685 13.929C50.2608 13.9763 49.9601 14.0189 49.6665 14.0568C49.3777 14.09 49.1433 14.1184 48.9634 14.142C48.5278 14.1989 48.1206 14.2912 47.7418 14.419C47.3678 14.5421 47.0647 14.7292 46.8327 14.9801C46.6055 15.2263 46.4918 15.5625 46.4918 15.9886C46.4918 16.571 46.7073 17.0114 47.1381 17.3097C47.5737 17.6032 48.1254 17.75 48.793 17.75ZM57.8466 8.09091L60.4602 12.5511L63.0739 8.09091H65.0057L61.483 13.5455L65.0057 19H63.0739L60.4602 14.767L57.8466 19H55.9148L59.3807 13.5455L55.9148 8.09091H57.8466ZM67.3974 19V8.09091H69.0735V19H67.3974ZM68.2496 6.27273C67.9229 6.27273 67.6412 6.16146 67.4045 5.93892C67.1725 5.71638 67.0565 5.44886 67.0565 5.13636C67.0565 4.82386 67.1725 4.55634 67.4045 4.33381C67.6412 4.11127 67.9229 4 68.2496 4C68.5763 4 68.8557 4.11127 69.0877 4.33381C69.3245 4.55634 69.4428 4.82386 69.4428 5.13636C69.4428 5.44886 69.3245 5.71638 69.0877 5.93892C68.8557 6.16146 68.5763 6.27273 68.2496 6.27273ZM72.1435 19V8.09091H73.7628V9.79545H73.9048C74.1321 9.21307 74.4991 8.76089 75.0057 8.43892C75.5123 8.11222 76.1207 7.94886 76.831 7.94886C77.5507 7.94886 78.1496 8.11222 78.6278 8.43892C79.1108 8.76089 79.4872 9.21307 79.7571 9.79545H79.8707C80.1501 9.23201 80.5691 8.78456 81.1278 8.45312C81.6866 8.11695 82.3565 7.94886 83.1378 7.94886C84.1132 7.94886 84.911 8.25426 85.5312 8.86506C86.1515 9.47112 86.4616 10.4157 86.4616 11.6989V19H84.7855V11.6989C84.7855 10.8939 84.5653 10.3187 84.125 9.97301C83.6847 9.62737 83.1662 9.45455 82.5696 9.45455C81.8026 9.45455 81.2083 9.68655 80.7869 10.1506C80.3655 10.6098 80.1548 11.1922 80.1548 11.8977V19H78.4503V11.5284C78.4503 10.9081 78.2491 10.4086 77.8466 10.0298C77.4441 9.64631 76.9257 9.45455 76.2912 9.45455C75.8556 9.45455 75.4484 9.57055 75.0696 9.80256C74.6955 10.0346 74.3925 10.3565 74.1605 10.7685C73.9332 11.1757 73.8196 11.6468 73.8196 12.1818V19H72.1435ZM92.7365 19.2557C92.0452 19.2557 91.4179 19.1255 90.8544 18.8651C90.291 18.5999 89.8435 18.2188 89.5121 17.7216C89.1806 17.2197 89.0149 16.6136 89.0149 15.9034C89.0149 15.2784 89.138 14.7718 89.3842 14.3835C89.6304 13.9905 89.9595 13.6828 90.3714 13.4602C90.7834 13.2377 91.2379 13.072 91.7351 12.9631C92.237 12.8494 92.7412 12.7595 93.2479 12.6932C93.9107 12.608 94.4482 12.544 94.8601 12.5014C95.2768 12.4541 95.5798 12.3759 95.7692 12.267C95.9633 12.1581 96.0604 11.9687 96.0604 11.6989V11.642C96.0604 10.9413 95.8686 10.3968 95.4851 10.0085C95.1063 9.62027 94.531 9.42614 93.7592 9.42614C92.959 9.42614 92.3317 9.60133 91.8771 9.9517C91.4226 10.3021 91.103 10.6761 90.9183 11.0739L89.3274 10.5057C89.6115 9.8428 89.9903 9.3267 90.4638 8.95739C90.942 8.58333 91.4628 8.32292 92.0263 8.17614C92.5945 8.02462 93.1532 7.94886 93.7024 7.94886C94.0528 7.94886 94.4553 7.99148 94.9098 8.0767C95.3691 8.1572 95.8118 8.32528 96.2379 8.58097C96.6688 8.83665 97.0263 9.22254 97.3104 9.73864C97.5945 10.2547 97.7365 10.946 97.7365 11.8125V19H96.0604V17.5227H95.9751C95.8615 17.7595 95.6721 18.0128 95.407 18.2827C95.1418 18.5526 94.7891 18.7822 94.3487 18.9716C93.9084 19.161 93.371 19.2557 92.7365 19.2557ZM92.9922 17.75C93.6551 17.75 94.2138 17.6198 94.6683 17.3594C95.1276 17.099 95.4732 16.7628 95.7053 16.3509C95.942 15.9389 96.0604 15.5057 96.0604 15.0511V13.517C95.9893 13.6023 95.8331 13.6804 95.5916 13.7514C95.3549 13.8177 95.0803 13.8769 94.7678 13.929C94.46 13.9763 94.1593 14.0189 93.8658 14.0568C93.5769 14.09 93.3426 14.1184 93.1626 14.142C92.727 14.1989 92.3198 14.2912 91.9411 14.419C91.567 14.5421 91.264 14.7292 91.032 14.9801C90.8047 15.2263 90.6911 15.5625 90.6911 15.9886C90.6911 16.571 90.9065 17.0114 91.3374 17.3097C91.773 17.6032 92.3246 17.75 92.9922 17.75Z" fill="white"/>
<path d="M101.598 19V4.45455H107.421C108.492 4.45455 109.384 4.61316 110.099 4.9304C110.814 5.24763 111.351 5.68797 111.711 6.25142C112.071 6.81013 112.251 7.45407 112.251 8.18324C112.251 8.75142 112.137 9.25095 111.91 9.68182C111.683 10.108 111.37 10.4583 110.973 10.733C110.58 11.0028 110.13 11.1946 109.623 11.3082V11.4503C110.177 11.474 110.696 11.6302 111.179 11.919C111.666 12.2079 112.062 12.6127 112.365 13.1335C112.668 13.6496 112.819 14.2652 112.819 14.9801C112.819 15.7519 112.627 16.4408 112.244 17.0469C111.865 17.6482 111.304 18.1241 110.561 18.4744C109.817 18.8248 108.901 19 107.812 19H101.598ZM104.673 16.4858H107.18C108.037 16.4858 108.662 16.3224 109.055 15.9957C109.448 15.6643 109.644 15.224 109.644 14.6747C109.644 14.2723 109.547 13.9171 109.353 13.6094C109.159 13.3016 108.882 13.0601 108.522 12.8849C108.167 12.7098 107.743 12.6222 107.251 12.6222H104.673V16.4858ZM104.673 10.5412H106.953C107.374 10.5412 107.748 10.4678 108.075 10.321C108.406 10.1695 108.667 9.95644 108.856 9.68182C109.05 9.4072 109.147 9.07812 109.147 8.6946C109.147 8.16903 108.96 7.74527 108.586 7.4233C108.217 7.10133 107.691 6.94034 107.01 6.94034H104.673V10.5412ZM117.874 19.206C117.178 19.206 116.558 19.0852 116.013 18.8438C115.469 18.5975 115.038 18.2353 114.721 17.7571C114.408 17.2741 114.252 16.6728 114.252 15.9531C114.252 15.3471 114.363 14.8381 114.586 14.4261C114.808 14.0142 115.111 13.6828 115.495 13.4318C115.878 13.1809 116.314 12.9915 116.802 12.8636C117.294 12.7358 117.81 12.6458 118.35 12.5938C118.985 12.5275 119.496 12.4659 119.884 12.4091C120.272 12.3475 120.554 12.2576 120.729 12.1392C120.905 12.0208 120.992 11.8456 120.992 11.6136V11.571C120.992 11.1212 120.85 10.7732 120.566 10.527C120.287 10.2808 119.889 10.1577 119.373 10.1577C118.828 10.1577 118.395 10.2784 118.073 10.5199C117.751 10.7566 117.538 11.0549 117.434 11.4148L114.636 11.1875C114.778 10.5246 115.057 9.9517 115.474 9.46875C115.89 8.98106 116.428 8.60701 117.086 8.34659C117.749 8.08144 118.516 7.94886 119.387 7.94886C119.993 7.94886 120.573 8.01989 121.127 8.16193C121.686 8.30398 122.181 8.52415 122.611 8.82244C123.047 9.12074 123.39 9.50426 123.641 9.97301C123.892 10.437 124.018 10.9934 124.018 11.642V19H121.148V17.4872H121.063C120.888 17.8281 120.654 18.1288 120.36 18.3892C120.066 18.6449 119.714 18.8461 119.302 18.9929C118.89 19.1349 118.414 19.206 117.874 19.206ZM118.741 17.1179C119.186 17.1179 119.579 17.0303 119.92 16.8551C120.261 16.6752 120.528 16.4337 120.722 16.1307C120.916 15.8277 121.013 15.4844 121.013 15.1009V13.9432C120.919 14.0047 120.789 14.0616 120.623 14.1136C120.462 14.161 120.28 14.206 120.076 14.2486C119.872 14.2865 119.669 14.322 119.465 14.3551C119.262 14.3835 119.077 14.4096 118.911 14.4332C118.556 14.4853 118.246 14.5682 117.981 14.6818C117.716 14.7955 117.51 14.9493 117.363 15.1435C117.216 15.3329 117.143 15.5696 117.143 15.8537C117.143 16.2656 117.292 16.5805 117.59 16.7983C117.893 17.0114 118.277 17.1179 118.741 17.1179ZM129.391 12.6932V19H126.365V8.09091H129.249V10.0156H129.376C129.618 9.38116 130.023 8.87926 130.591 8.50994C131.159 8.13589 131.848 7.94886 132.658 7.94886C133.415 7.94886 134.076 8.11458 134.639 8.44602C135.203 8.77746 135.641 9.25095 135.953 9.86648C136.266 10.4773 136.422 11.2064 136.422 12.054V19H133.396V12.5938C133.401 11.9261 133.231 11.4053 132.885 11.0312C132.539 10.6525 132.063 10.4631 131.457 10.4631C131.05 10.4631 130.69 10.5507 130.378 10.7259C130.07 10.901 129.829 11.1567 129.653 11.4929C129.483 11.8243 129.395 12.2244 129.391 12.6932ZM141.548 15.8608L141.555 12.2315H141.995L145.49 8.09091H148.963L144.268 13.5739H143.551L141.548 15.8608ZM138.806 19V4.45455H141.832V19H138.806ZM145.625 19L142.414 14.2486L144.431 12.1108L149.169 19H145.625Z" fill="white"/>
<path d="M11.6667 23.6666C5.22317 23.6666 0 18.4435 0 12C0 5.55648 5.22317 0.333313 11.6667 0.333313C18.1102 0.333313 23.3333 5.55648 23.3333 12C23.3333 18.4435 18.1102 23.6666 11.6667 23.6666ZM7.58333 14.3333V16.6666H10.5V19H12.8333V16.6666H14C14.7735 16.6666 15.5154 16.3594 16.0624 15.8124C16.6094 15.2654 16.9167 14.5235 16.9167 13.75C16.9167 12.9764 16.6094 12.2346 16.0624 11.6876C15.5154 11.1406 14.7735 10.8333 14 10.8333H9.33333C9.17862 10.8333 9.03025 10.7719 8.92085 10.6625C8.81146 10.5531 8.75 10.4047 8.75 10.25C8.75 10.0953 8.81146 9.9469 8.92085 9.8375C9.03025 9.7281 9.17862 9.66665 9.33333 9.66665H15.75V7.33331H12.8333V4.99998H10.5V7.33331H9.33333C8.55979 7.33331 7.81792 7.6406 7.27094 8.18759C6.72396 8.73457 6.41667 9.47643 6.41667 10.25C6.41667 11.0235 6.72396 11.7654 7.27094 12.3124C7.81792 12.8594 8.55979 13.1666 9.33333 13.1666H14C14.1547 13.1666 14.3031 13.2281 14.4125 13.3375C14.5219 13.4469 14.5833 13.5953 14.5833 13.75C14.5833 13.9047 14.5219 14.0531 14.4125 14.1625C14.3031 14.2719 14.1547 14.3333 14 14.3333H7.58333Z" fill="#FBBC05"/>
</svg>
